<?xml version="1.0" encoding="UTF-8"?>
<svg width="530.95" height="483.03" enable-background="new 0 0 1024 1024" version="1.1" viewBox="0 0 530.95 483.03" xml:space="preserve" xmlns="http://www.w3.org/2000/svg"><g>









<path d="m282.04 431.66c3.1477-13.59 11.575-22.892 24.163-29.199-7.6294-24.831-15.224-49.549-22.816-74.258 6.738-2.0996 7.6625-1.6849 9.4537 4.0328 6.5588 20.936 13.105 41.876 19.648 62.817 0.70861 2.268 1.2404 4.5278 4.5071 4.2028 16.64-1.656 29.904 4.5146 40.212 18.165 17.547-11.882 34.832-23.585 52.751-35.312 1.8877 1.5605 3.1408 3.1442 4.3938 4.7279-6.1843 4.409-12.349 8.8462-18.557 13.221-10.721 7.5538-21.377 15.206-32.259 22.523-3.665 2.4645-1.4836 4.9955-0.81226 7.3926 2.8132 10.044 2.0676 19.863-2.2963 29.173-7.057 15.056-26.281 25.818-41.234 23.581-19.931-2.9808-34.426-16.181-37.703-34.493-0.46521-2.5994-0.3468-5.3033-0.43194-8.7659 0.37164-3.1409 0.67669-5.4749 0.98168-7.8088z" fill="#74c476"/>
<path d="m331.85 298.31c-7.3242 0.30908-14.456 0.30908-21.952 0.30908v-87.557c6.6775 0 13.141-0.15625 19.584 0.13226 1.2847 0.0575 2.7552 1.6108 3.6968 2.8197 10.738 13.786 21.39 27.639 32.068 41.472 0.45636 0.59119 0.94989 1.1537 2.3454 2.8412v-47.08h22.324v87.74c-5.8372 0-11.621 0.16699-17.38-0.13318-1.2336-0.0643-2.6253-1.6353-3.5277-2.8275-11.249-14.859-22.416-29.779-33.622-44.67-0.6734-0.89471-1.5035-1.6714-3.3451-3.694 0 17.673 0 34.005-0.19226 50.647z" fill="#070722"/>
<path d="m26.265 276.63c-1.154 1.5322-2.3249 2.988-2.3852 4.4885-0.22656 5.6342-0.0908 11.283-0.0908 17.415h-23.789v-87.015c1.031-0.17425 1.8195-0.42471 2.6075-0.42325 13.827 0.0256 27.665-0.2261 41.479 0.22544 11.872 0.38806 21.868 5.2667 27.51 16.098 6.1475 11.803 5.6009 23.967-1.7395 35.155-6.2657 9.5499-16.327 12.726-27.114 13.687-5.2955 0.47199-10.655 0.23121-16.478 0.3689m21.528-23.545c4.3426-5.1266 4.8561-10.837 2.08-16.741-2.6091-5.5491-7.4913-7.0909-13.287-6.751-3.1515 0.18482-6.3503-0.17504-9.4668 0.20765-1.1816 0.14511-3.1077 1.6571-3.1366 2.5941-0.24969 8.0955-0.14367 16.202-0.14367 24.89 5.1253 0 9.631 0.45502 13.99-0.14984 3.2476-0.45068 6.3049-2.2725 9.964-4.0501z" fill="#6907e5"/>
<path d="m218.9 279.27c-3.7213-11.053-3.6423-21.601 1.0122-32.004 6.7459-15.076 27.869-26.248 47.972-10.542v-31.27c7.2206 0 13.824-0.10794 20.415 0.12748 0.89063 0.0318 2.4648 1.7851 2.4691 2.7468 0.13208 29.949 0.10815 59.899 0.10815 90.285h-22.224c-0.28229-1.8176-0.55072-3.5459-0.97772-6.2949-9.8708 7.7426-20.191 10.47-31.478 5.2538-8.0289-3.7105-13.846-9.6568-17.298-18.302m40.965-33.145c-4.6094 0.23083-10.066-1.0496-13.671 0.97183-11.463 6.4274-12.637 20.328-4.7016 31.688 5.4504 7.8022 12.719 5.4573 19.331 3.8723 4.8506-1.1628 7.789-5.7997 9.2406-10.824 3.1199-10.797-0.31097-19.174-10.198-25.708z" fill="#6907e5"/>
<path d="m407.2 250.92c7.0702-19.116 29.022-25.171 44.937-20.243 15.363 4.7571 25.293 21.412 22.842 39.774h-47.148c0.77038 5.9935 3.9855 9.3024 8.6025 11.119 8.2755 3.2553 15.624 1.1789 22.327-4.9599 4.0994 3.6326 8.2426 7.3039 12.373 10.964-9.1767 12.699-31.738 16.774-47.404 8.7086-15.822-8.1461-22.62-26.499-16.528-45.362m46.251 4.4512c-3.7009-8.2403-8.6838-11.031-16.391-9.1797-5.7014 1.3695-9.5994 6.412-9.3956 12.705 7.9253 0 15.879 0.0732 23.827-0.12097 0.7381-0.0181 1.4349-1.7319 1.9593-3.4044z" fill="#070722"/>
<path d="m318.51 40.328c0.69263-15.173 6.7676-27.274 20.286-34.949 11.276-6.4016 22.971-7.1591 34.914-1.8998 22.998 10.127 30.352 39.344 15.764 58.758-2.5298 3.3665-2.6289 5.3856-0.0949 8.9545 10.968 15.446 21.545 31.173 32.073 46.926 2.306 3.4505 4.8854 4.6893 9.0624 4.5679 8.7329-0.25363 15.129 4.7548 17.424 12.783 2.0867 7.2998-1.1735 15.569-7.6765 19.47-6.9866 4.1917-16.319 3.4333-22.106-2.2638-2.3309-2.2945-4.3337-1.7166-6.7532-0.84442-18.007 6.4911-36.001 13.02-54.057 19.373-3.2637 1.1483-7.6333 4.4474-9.5573-1.3736-1.8201-5.5067 3.7775-5.0354 6.5096-6.0567 16.523-6.176 33.166-12.03 49.783-17.951 4.6896-1.671 9.9098-2.7457 8.9594-9.6447-0.0608-0.44138 0.1828-1.0292 0.47461-1.399 4.4316-5.6169 2.2852-10.304-1.3853-15.467-10.313-14.506-20.261-29.273-30.236-44.016-1.7153-2.5354-3.0938-3.0621-6.0347-1.5976-8.6731 4.3192-17.919 5.0215-27.234 2.5263-3.1794-0.85169-4.5494 0.0522-5.6967 2.8077-6.1378 14.742-12.42 29.423-18.551 44.167-7.026 16.896-13.96 33.83-20.901 50.761-1.5333 3.7403-4.6617 2.6389-7.243 2.1224-0.51306-0.10266-1.08-3.4852-0.50836-4.9079 5.3951-13.429 11.034-26.761 16.598-40.122 7.6049-18.264 15.15-36.553 22.854-54.775 1.5181-3.5908-0.0787-5.7011-2.6143-7.665-6.7603-5.2358-10.577-12.234-12.461-21.236-0.61102-2.8567-1.1012-4.9528-1.5914-7.049m86.686 60.987c-0.51605-0.77429-1.032-1.5486-1.548-2.3229-0.3822 0.36332-0.76434 0.72663-1.1465 1.0899 0.88757 0.65408 1.7752 1.3082 2.6647 2.7092 0.71466 1.6446 1.2156 3.4294 2.1842 4.9077 2.9031 4.4311 6.1772 8.6276 8.9307 13.145 1.5832 2.5974 3.8356 5.9119 3.3435 8.4254-1.1827 6.0412-3.806 11.8-5.6929 17.227 2.3977 1.108 4.4741 1.4568 5.5894 2.681 7.7854 8.5464 18.842 6.9931 23.836-3.3516 2.4223-5.0171 3.2585-9.9775-0.57996-14.379-3.825-4.3864-8.7168-6.8787-14.946-6.2986-1.8247 0.16995-4.3935-0.59101-5.5665-1.883-2.8613-3.1514-4.9688-6.972-7.6342-10.321-2.9955-3.7631-6.2702-7.3038-9.4346-11.629m-75.354-41.54c3.5447 4.8383 7.0894 9.6765 10.88 14.85 3.3292-3.3294 7.2459-0.83887 11.394-0.31164 7.4581 0.94799 15.62 3.0022 20.939-5.3188 0.32673-0.51096 1.4489-0.69147 2.2103-0.71445 2.7484-0.0829 5.5009-0.0326 8.1431-0.0326 2.8308-6.5014 5.4958-12.39 7.9514-18.364 1.1602-2.8226 2.6818-5.7986 2.7261-8.725 0.18207-12.007-3.5272-22.277-13.759-29.751-3.9891-2.9138-7.5848-5.3232-12.8-4.5523-1.5425 0.228-3.3042-1.0427-4.9683-1.6183-2.1262-0.73542-5.2795-2.7068-6.1898-1.9577-2.6431 2.1751-5.4666 1.4768-8.1097 1.6198-7.9116 0.42771-12.635 6.2706-17.69 10.791-11.236 10.049-11.448 32.068-0.72736 44.085m47.432 99.047c-5.6052 1.8474-11.21 3.6948-16.816 5.5423 0.2605 0.73719 0.52105 1.4744 0.78161 2.2116 10.728-3.0208 20.952-7.5709 31.387-11.528-5.557-1.5131-9.9322 1.5867-15.353 3.7736m12.715-77.159c1.6125 2.4522 3.225 4.9044 4.8376 7.3566 0.60169-0.37146 1.2034-0.74292 1.8051-1.1144-1.8886-3.3259-3.7772-6.6519-5.6658-9.9778-0.4331 0.17819-0.86615 0.35636-1.2992 0.53455 0 0.85477 0 1.7095 0.32233 3.201m-3.7841-10.156c-0.82666-0.30054-1.6533-0.60107-2.48-0.90161 0.29669 1.115 0.30151 2.4876 0.98449 3.262 0.52533 0.59567 1.9041 0.43872 2.9033 0.61646-0.3034-0.82639-0.60681-1.6527-1.4078-2.9768z" fill="#67a9cf"/>
<path d="m511.6 251.84c-0.0234 6.8464-0.0867 13.174-0.0311 19.501 0.0883 10.048 4.5096 12.743 14.41 8.0985 1.6598 5.1966 3.2928 10.309 4.9717 15.565-7.8875 4.1411-15.785 6.0604-24.302 4.9506-9.016-1.1748-15.211-6.3845-16.309-15.606-1.1166-9.3744-0.84485-18.915-1.1541-28.384-0.0641-1.9606-9e-3 -3.925-9e-3 -6.193-2.5947-0.20911-4.6907-0.37799-7.1628-0.57721v-17.214c1.9819-0.20008 4.1908-0.42307 6.8386-0.69037v-15.308h22.603v15.345h15.994v18.077c-3.9466 0-8.044-0.14869-12.119 0.088-1.27 0.0737-2.4795 1.1897-3.7303 2.3476z" fill="#070722"/>
<path d="m190.11 71.861c0.28949-6.7225-0.63342-13.477 3.9569-19.575 8.5239-11.323 25.269-11.757 33.893-0.55795 1.2602 1.6364 3.0417 2.8712 4.7234 4.6325-4.736 2.3002-0.92658 5.1115-0.56897 7.5843-0.35068 7.1568-2.7632 13.177-8.7964 17.612-1.1213 0.82434-1.8144 3.5285-1.3856 4.9736 9.8842 33.312 19.952 66.571 29.977 99.841 0.0436 0.14462-0.0322 0.32522-0.0522 0.48904-4.6492 3.3103-6.746 2.8216-8.2617-2.2092-6.2342-20.691-12.333-41.423-18.593-62.107-3.4145-11.281-7.0068-22.51-10.657-33.718-0.37531-1.1524-1.6905-2.843-2.5797-2.8492-6.7455-0.0477-11.99-3.4289-17.429-7.6222-1.5926-2.4994-2.9098-4.4972-4.2269-6.4951z" fill="#74c476"/>
<path d="m281.69 431.54c0.0511 2.4551-0.25397 4.7891-0.66529 7.4336-19.761-5.8761-39.409-12.084-59.072-18.243-17.907-5.6096-35.845-11.123-53.735-16.787-3.2372-1.0249-4.9183-0.35859-6.7626 2.7578-13.598 22.977-42.916 23.297-59.879 8.0018-15.085-13.601-16.352-43.332 3.5117-57.16 3.2268-2.2463 3.9372-3.9806 2.3656-7.6868-2.9695-7.0026-5.2612-14.293-7.8187-21.419 6.6529-3.2051 8.1175-2.6803 10.371 3.3655 1.9761 5.3018 3.7914 10.678 6.1037 15.83 0.55307 1.2322 2.9099 2.5607 4.2497 2.3884 9.3126-1.1984 18.342-0.79871 26.6 4.1124 4.3514 2.5878 7.2324 1.7573 10.029-2.3433 4.9628-7.276 10.257-14.327 15.437-21.453 3.1952-4.3954 5.8648-4.9122 11.864-1.7865-2.1617 3.1467-4.1678 6.2926-6.3986 9.27-5.6812 7.5826-11.649 14.961-17.042 22.74-1.0354 1.4935-0.7102 4.8386 0.25757 6.6513 3.6969 6.9249 6.2117 14.126 5.4498 21.969-0.44748 4.6061 1.6163 6.0058 5.4601 7.2004 31.938 9.9263 63.833 19.992 95.718 30.088 4.5949 1.455 9.069 3.2913 13.955 5.0724m-162.99-10.908c2.8224 0.47613 5.6449 0.95233 9.1307 1.7157 2.0593-0.13947 4.2852 0.1745 6.1449-0.50855 4.5252-1.6617 8.8805-3.7861 14.018-5.771 1.7662-1.3203 3.5324-2.6406 5.8242-4.3984 1.7798-2.9059 3.2458-6.0872 5.4615-8.6104 1.2511-1.4247 3.7095-2.3583 5.671-2.4443 2.3914-0.10486 4.832 0.91278 7.9215 1.751 1.3797 0.55468 2.7285 1.2089 4.144 1.6484 12.465 3.871 24.951 7.674 37.412 11.557 10.88 3.3906 21.743 6.8402 32.602 10.3 6.7379 2.1468 13.434 4.4258 20.189 6.518 3.3818 1.0476 6.8519 1.8097 10.282 2.7009 0.1878-0.61048 0.37561-1.2209 0.56341-1.8314-1.3807-0.62915-2.7137-1.4095-4.1499-1.8628-9.1531-2.8895-18.337-5.6797-27.495-8.5558-8.6362-2.7125-17.235-5.5458-25.883-8.2205-6.1456-1.9008-12.363-3.5681-18.517-5.4438-9.9414-3.0302-19.857-6.1461-30.147-9.8452-0.85413-0.45221-1.6636-1.1505-2.57-1.3148-4.3066-0.78046-5.6414-2.6992-5.3703-7.5071 0.30743-5.454-0.40225-11.537-2.6806-16.405-2.277-4.8652-5.4678-9.1414-4.3653-16.801-4.3928 5.4044-7.0129 2.2058-10.006 0.5763-4.2775-2.3284-8.1349-5.5128-13.535-5.4327-5.5065 0.0816-11.845-3.1376-14.789 4.8349-0.15914 0.43109-1.8962 0.27966-2.0572 0.29895-1.9766-5.5272-3.5841-10.427-5.47-15.216-4.7996-12.19-4.8494-12.171-8.0938-12.605 3.4968 9.9679 6.9039 19.68 10.06 28.678-3.9337 1.7788-7.7383 2.5373-10.184 4.7786-8.6754 7.9505-10.189 18.574-9.6464 29.674 0.61743 12.64 13.119 26.17 25.533 27.742m44.342-67.231c2.1185-3.474 4.237-6.948 6.3555-10.422-0.56061-0.36011-1.1212-0.72021-1.6818-1.0804-2.8765 4.03-5.7529 8.06-8.6294 12.09 0.24637 0.31989 0.49271 0.63977 0.73908 0.95966 0.93518-0.31769 1.8703-0.63537 3.2166-1.5472z" fill="#67a9cf"/>
<path d="m124.87 229.6c2.3576-0.17743 4.315-0.26706 6.6002-0.37173v20.554c-14.287 1.9346-19.365 7.4998-19.724 21.631-0.22393 8.8176-0.15826 17.642-0.23553 26.464-1e-3 0.1405-0.16818 0.27948-0.50317 0.80169h-21.351c-0.13214-1.1881-0.39316-2.4499-0.39472-3.7119-0.0241-19.651 0.0741-39.303-0.0894-58.953-0.0319-3.8366 0.87774-5.3791 5.0006-5.0981 5.4345 0.37036 10.913 0.0911 16.422 0.0911 0.55404 2.2577 0.97564 3.9756 1.3996 5.7032 4.2902-2.4152 8.3828-4.7191 12.876-7.1107z" fill="#6907e5"/>
<path d="m148.14 106c2.2349 7.4334 3.3916 14.989 0.16824 22.334-1.843 4.1999-4.3758 8.1712-7.0842 11.891-1.8401 2.5274-1.5147 4.2229 0.0777 6.6201 7.8088 11.755 15.461 23.614 23.116 35.471 1.0241 1.5862 1.7469 3.367 2.8082 5.4477-5.3637 1.3947-8.7475 1.1932-11.771-3.8475-6.7373-11.233-14.394-21.913-21.526-32.914-1.6619-2.5634-3.4542-2.7547-6.2875-2.3507-5.6868 0.81091-11.502 1.5275-17.199 1.184-3.8856-0.23432-5.6558 0.52786-7.0803 4.1769-3.8672 9.9057-8.3095 19.586-12.229 29.472-2.0021 5.0501-5.2763 6.1458-10.765 4.4411 3.1705-7.6283 6.251-15.056 9.3447-22.478 2.2384-5.3704 4.3298-10.811 6.804-16.071 1.4813-3.1491 0.63657-4.9695-1.8148-7.2188-14.451-13.26-14.733-34.526-0.83792-48.428 13.425-13.432 39.276-11.618 50.03 5.7268 1.6438 2.5485 2.9446 4.5458 4.2453 6.5431m-21.58 40.076c4.8041-2.4516 8.1872-0.7312 11.556 4.9875 5.3415 9.0679 10.982 17.962 16.615 26.854 1.8245 2.8802 4.0219 5.5242 6.0488 8.2762 0.55637-0.37875 1.1127-0.75754 1.6691-1.1363-7.4979-14.961-18.22-27.978-26.717-42.036 1.637-3.2579 3.2405-6.449 4.8439-9.6401 1.0321-1.554 3.7353-2.7001 4.1123-4.371 0.31031-1.3753-2.1382-3.3731-4.0639-6.078 2.8707 0.87158 4.3806 1.33 6.5036 1.9746 0-4.4551 0.68936-8.5641-0.21139-12.288-0.76273-3.1535-0.79688-7.5192-5.5693-8.5256-2.5451-0.53671-4.9788-1.602-7.9037-2.5754 1.718-2.6996 2.6569-4.175 4.4436-6.9826-6.9317-2.3707-13.084-5.2271-19.546-6.4789-6.8306-1.323-13.371 0.64166-18.522 5.8709-0.77222 0.78393-1.654 1.563-2.6362 2.0186-3.6885 1.7105-7.4847 8.1235-7.5964 12.116-0.1632 5.8373-1.0586 11.666-0.99496 17.492 0.0255 2.3296 1.5742 4.7512 2.796 6.925 1.0003 1.7798 2.3451 3.4923 3.9041 4.7958 1.5058 1.2589 3.893 3.1271 5.1713 2.6772 3.5879-1.2627 3.8553 0.78647 4.6301 2.9485-1.4966 0.931-2.7254 1.6954-4.9593 3.0851 2.0956 0.50866 2.963 0.87701 3.8414 0.90503 3.7463 0.11953 7.4993 0.26242 11.243 0.15814 3.5344-0.0985 7.0606-0.49558 11.342-0.97211z" fill="#67a9cf"/>
<path d="m208.61 259.97c1.1682 10.423 1.173 10.611-8.8911 10.865-10.811 0.27295-21.633 0.14515-32.45 0.18946-1.7744 7e-3 -3.5489 9.1e-4 -5.8697 9.1e-4 0.74863 6.0204 3.8871 9.3599 8.482 10.797 8.1962 2.5637 15.795 1.4644 21.684-5.6804 4.2915 3.6823 8.4909 7.2857 13.037 11.186-5.8956 7.1481-13.261 11.251-22.344 12.617-20.178 3.036-37.312-6.6088-42.713-25.013-3.9326-13.401-1.4573-26.179 8.8003-35.942 11.024-10.493 24.528-12.947 38.929-7.6517 12.999 4.7793 19.643 14.696 21.336 28.631m-46.416 19.583c-0.5773-0.5993-1.2063-1.1572-1.7237-1.8044-3.7503-4.6924-2.9409-7.6201 2.8672-8.781 3.2629-0.65222 6.7326-0.35461 10.109-0.34088 9.22 0.0375 18.443 0.32788 27.658 0.15875 4.4133-0.0809 6.573-2.2822 6.1792-7.353-1.4348-18.474-20.576-33.141-37.503-29.846-26.101 5.0809-33.46 25.68-26.386 47.424 0.8389 2.5787 2.5477 5.1027 4.4561 7.0662 9.104 9.3664 20.374 13.669 33.263 11.737 7.0668-1.0595 14.134-3.4338 19.356-9.8669-2.9263-2.6464-5.576-5.0426-8.6035-7.7805-5.8581 4.7372-13.1 5.4696-20.639 4.8503-3.6121-0.29669-6.9196-1.1391-9.0339-5.4633z" fill="#6b19d8"/></g><g fill="#67a9cf">
<path d="m414.73 386.79c-1.6265-1.5317-2.8796-3.1154-4.3963-4.7794-1.4308-5.1846-1.8804-10.623-4.0395-15.266-1.2585-2.7065-5.0305-4.5979-8.0537-6.0731-20.453-9.9802-41.012-19.742-61.518-29.612-1.3054-0.62836-2.4556-1.579-4.9609-3.22 7.9612-1.3664 14.238-2.1658 20.752 1.0563 17.427 8.619 35.046 16.85 52.52 25.374 2.9125 1.4208 4.1653 0.76593 5.868-1.9117 5.587-8.7859 16.148-12.712 26.587-10.368 10.809 2.4266 17.322 9.8748 19.178 20.893 1.7612 10.453-2.3081 18.512-10.366 24.117-7.4414 5.1757-16.105 5.7878-24.745 2.1175-2.1072-0.89508-4.299-1.5912-6.8254-2.3268m27.924-0.49347c5.855-3.48 8.8323-8.5637 11.529-14.996 3.6104-8.6111-4.6689-24.088-14.281-26.386-12.124-2.8985-21.456 0.43769-28.589 10.654-0.84632 1.2121-3.6043 2.3925-4.7363 1.8971-9.6924-4.2416-19.243-8.814-28.779-13.405-9.8306-4.7322-19.546-9.7086-29.439-14.303-1.892-0.87848-4.3785-0.47626-6.5908-0.66492-0.11621 0.5849-0.23242 1.1698-0.34863 1.7546 9.8754 4.99 19.721 10.041 29.634 14.954 11.252 5.5762 22.547 11.065 33.863 16.51 2.8162 1.355 4.2803 3.1302 4.3798 6.496 0.26801 9.0637 4.9534 14.628 13.422 18.303 6.8963 2.9924 12.885 1.5076 19.935-0.81348z"/>
<path d="m232.44 63.894c-0.67948-2.422-4.4889-5.2333 0.59839-7.4631 28.345-5.5223 56.48-10.774 85.047-16.064 0.92151 2.0582 1.4117 4.1543 1.8911 6.5871-27.331 5.5415-54.651 10.746-82.72 15.939-1.5785 0.1947-2.4085 0.4021-3.2386 0.60949-0.41873 0.11386-0.83746 0.22773-1.5781 0.3924z"/>
<path d="m148.47 105.87c-1.6288-1.8659-2.9296-3.8632-4.2776-6.1359 13.568-8.3592 27.188-16.434 40.79-24.54 1.5497-0.92349 2.9936-2.0244 4.8098-3.1874 1.6404 1.8534 2.9576 3.8513 4.199 6.2068-15.115 9.4135-30.154 18.469-45.521 27.656z"/>
</g><g><path d="m234.34 63.62c0.50528-0.32608 1.3353-0.53348 2.4885-0.66874-0.50579 0.31055-1.3348 0.54899-2.4885 0.66874z" fill="#ab8df1"/>









<path d="m47.534 253.37c-3.4006 1.4944-6.4579 3.3162-9.7055 3.7668-4.3586 0.60486-8.8643 0.14984-13.99 0.14984 0-8.6882-0.10602-16.795 0.14367-24.89 0.0289-0.93701 1.955-2.449 3.1366-2.5941 3.1165-0.38269 6.3153-0.0228 9.4668-0.20765 5.7954-0.33996 10.678 1.2019 13.287 6.751 2.7761 5.9044 2.2625 11.614-2.3386 17.024z" fill="#f5eff7"/>
<path d="m260.26 246.25c9.4938 6.4068 12.925 14.784 9.8048 25.581-1.4517 5.024-4.3901 9.661-9.2406 10.824-6.6122 1.585-13.88 3.9299-19.331-3.8723-7.9355-11.36-6.7618-25.26 4.7016-31.688 3.6054-2.0215 9.0621-0.741 14.065-0.84491m-20.534 24.237c2.8582 7.9321 7.6719 11.668 14.502 11.254 12.088-0.7315 18.705-14.176 12.857-25.966-2.4492-4.9374-6.4155-7.5848-11.769-7.9805-5.702-0.42139-10.406 1.4974-13.618 6.5535-3.0613 4.8185-3.5407 9.933-1.972 16.139z" fill="#6b19d8"/>
<path d="m453.54 255.74c-0.62024 1.2994-1.317 3.0133-2.0551 3.0314-7.9477 0.19415-15.902 0.12097-23.827 0.12097-0.20374-6.293 3.6943-11.335 9.3956-12.705 7.707-1.8513 12.69 0.93939 16.487 9.5527z" fill="#e2e5e8"/></g><g fill="#67a9cf">
<path d="m329.59 59.502c-10.468-11.744-10.256-33.764 0.97961-43.812 5.0547-4.5205 9.7781-10.363 17.69-10.791 2.6431-0.14291 5.4666 0.55539 8.1097-1.6198 0.91021-0.74905 4.0635 1.2223 6.1898 1.9577 1.6641 0.57556 3.4258 1.8463 4.9683 1.6183 5.215-0.77084 8.8108 1.6385 12.8 4.5523 10.231 7.4736 13.941 17.744 13.759 29.751-0.0443 2.9264-1.5659 5.9024-2.7261 8.725-2.4556 5.9744-5.1207 11.863-7.9514 18.364-2.6422 0-5.3947-0.0503-8.1431 0.0326-0.76141 0.023-1.8835 0.20349-2.2103 0.71445-5.3196 8.3211-13.481 6.2668-20.939 5.3188-4.1476-0.52723-8.0643-3.0178-11.394 0.31164-3.7903-5.1736-7.335-10.012-11.132-15.123z"/>
<path d="m405.21 102c3.1533 3.6375 6.428 7.1782 9.4235 10.941 2.6654 3.3486 4.7729 7.1692 7.6342 10.321 1.173 1.292 3.7418 2.0529 5.5665 1.883 6.2295-0.58002 11.121 1.9123 14.946 6.2986 3.8385 4.4019 3.0023 9.3624 0.57996 14.379-4.9947 10.345-16.051 11.898-23.836 3.3516-1.1152-1.2243-3.1916-1.5731-5.5894-2.681 1.8868-5.4265 4.5101-11.186 5.6929-17.227 0.49206-2.5134-1.7603-5.8279-3.3435-8.4254-2.7534-4.5172-6.0276-8.7137-8.9307-13.145-0.96857-1.4783-1.4695-3.263-2.1745-5.2917 0.01-0.38398 0.0313-0.40491 0.0313-0.40491z"/>
<path d="m377.65 158.69c5.0464-2.0507 9.4217-5.1506 14.979-3.6374-10.435 3.9567-20.659 8.5067-31.387 11.528-0.26056-0.73721-0.52111-1.4744-0.78161-2.2116 5.6052-1.8474 11.21-3.6948 17.19-5.6785z"/>
<path d="m389.83 81.345c-0.16113-1.1731-0.16113-2.0279-0.16113-2.8827 0.43304-0.17819 0.86609-0.35636 1.2992-0.53455 1.8886 3.326 3.7772 6.6519 5.6658 9.9778-0.60169 0.37146-1.2034 0.74292-1.8051 1.1144-1.6126-2.4522-3.225-4.9044-4.9988-7.675z"/>
<path d="m386.46 71.756c0.55218 1.0752 0.85559 1.9016 1.159 2.728-0.9992-0.17774-2.3779-0.0208-2.9033-0.61646-0.68298-0.77441-0.6878-2.1469-0.98449-3.262 0.82666 0.30054 1.6533 0.60107 2.7288 1.1504z"/>
<path d="m405.18 102.03c-0.89825-0.64355-1.7858-1.2976-2.6734-1.9517 0.38214-0.36331 0.76428-0.72662 1.1465-1.0899 0.516 0.7743 1.032 1.5486 1.5536 2.6665 6e-3 0.34369-0.0161 0.36462-0.0267 0.37512z"/>
<path d="m147.28 416.12c-4.4238 1.9381-8.7791 4.0626-13.304 5.7242-1.8597 0.68305-4.0856 0.36908-6.4315 0.0525 0.0574-1.1646 0.40137-1.8732 0.26959-1.6017-3.1933-2.0877-6.1112-4.1951-9.224-5.9584-1.9845-1.1241-4.2577-1.7386-7.1367-2.8708 2.8108 3.6048 4.7716 6.1194 6.7324 8.634-11.9-1.0349-24.401-14.565-25.018-27.204-0.54224-11.1 0.97103-21.724 9.6464-29.674 2.4456-2.2413 6.2502-2.9998 10.184-4.7786-3.1564-8.9976-6.5636-18.71-10.06-28.678 3.2444 0.43408 3.2942 0.41449 8.0938 12.605 1.8858 4.7897 3.4934 9.6892 5.47 15.216 0.16098-0.0193 1.898 0.13214 2.0572-0.29895 2.9439-7.9725 9.2823-4.7533 14.789-4.8349 5.4001-0.08 9.2575 3.1043 13.535 5.4327 2.9933 1.6295 5.6134 4.8281 10.006-0.5763-1.1025 7.6599 2.0883 11.936 4.3653 16.801 2.2784 4.8682 2.988 10.951 2.6806 16.405-0.27103 4.8079 1.0638 6.7266 5.3703 7.5071 0.90631 0.16425 1.7158 0.86255 2.7356 1.9764 0.16461 1.1302 0.16351 1.5986 0.16241 2.0671-2.4193-0.53217-4.86-1.5498-7.2514-1.445-1.9615 0.0861-4.4199 1.0196-5.671 2.4443-2.2157 2.5231-3.6817 5.7045-6.1056 8.799-1.3059 0.13159-1.9687 0.0837-2.6294 0.0156-1.4017-0.14447-2.8022-0.29962-4.2033-0.45044 0.31277 1.5638 0.62558 3.1277 0.93838 4.6915z"/>
<path d="m172.54 402.22c-0.33399-0.62152-0.33289-1.09-0.31556-1.9105 9.9425 2.7278 19.858 5.8436 29.799 8.8738 6.1536 1.8757 12.371 3.543 18.517 5.4438 8.6477 2.6747 17.246 5.508 25.883 8.2205 9.1574 2.8762 18.342 5.6664 27.495 8.5558 1.4362 0.4533 2.7692 1.2336 4.1499 1.8628-0.1878 0.61047-0.37561 1.2209-0.56341 1.8314-3.4302-0.89124-6.9004-1.6534-10.282-2.7009-6.7545-2.0922-13.451-4.3712-20.189-6.518-10.859-3.4598-21.721-6.9094-32.602-10.3-12.461-3.8833-24.947-7.6862-37.412-11.557-1.4155-0.43957-2.7643-1.0938-4.4791-1.8014z"/>
<path d="m118.44 420.37c-2.2181-2.7832-4.1789-5.2978-6.9897-8.9026 2.8789 1.1321 5.1521 1.7467 7.1367 2.8708 3.1128 1.7634 6.0308 3.8707 9.224 5.9584 0.13178-0.27149-0.21222 0.43707-0.60128 1.4581-2.8675-0.16376-5.69-0.63996-8.7697-1.3847z"/>
<path d="m162.84 353.7c-1.1408 0.61475-2.0759 0.93243-3.0111 1.2501-0.24637-0.31989-0.49271-0.63977-0.73908-0.95966 2.8765-4.03 5.7529-8.0599 8.6294-12.09 0.56061 0.36017 1.1212 0.72027 1.6818 1.0804-2.1185 3.474-4.237 6.948-6.5611 10.719z"/>
<path d="m147.64 416.1c-0.66989-1.5405-0.9827-3.1043-1.2955-4.6682 1.401 0.15082 2.8016 0.30597 4.2033 0.45044 0.66068 0.0681 1.3235 0.11603 2.3666 0.20319-1.3849 1.3505-3.1511 2.6708-5.2744 4.0145z"/>
<path d="m126.18 146.18c-3.9057 0.37115-7.4318 0.76828-10.966 0.86673-3.7439 0.10428-7.4968-0.0386-11.243-0.15814-0.87836-0.028-1.7458-0.39637-3.8414-0.90503 2.2339-1.3897 3.4627-2.1541 4.9593-3.0851-0.77478-2.1621-1.0422-4.2112-4.6301-2.9485-1.2784 0.44989-3.6655-1.4183-5.1713-2.6772-1.559-1.3034-2.9038-3.016-3.9041-4.7958-1.2218-2.1738-2.7705-4.5955-2.796-6.925-0.0637-5.8255 0.83176-11.654 0.99496-17.492 0.1117-3.9928 3.9079-10.406 7.5964-12.116 0.98221-0.45553 1.864-1.2346 2.6362-2.0186 5.1512-5.2292 11.692-7.1939 18.522-5.8709 6.4627 1.2518 12.615 4.1082 19.546 6.4789-1.7867 2.8076-2.7256 4.283-4.4436 6.9826 2.9248 0.97341 5.3586 2.0387 7.9037 2.5754 4.7725 1.0064 4.8066 5.372 5.5693 8.5256 0.90075 3.7243 0.21139 7.8333 0.21139 12.288-2.123-0.64459-3.6329-1.103-6.5036-1.9746 1.9257 2.7049 4.3742 4.7027 4.0639 6.078-0.37701 1.6709-3.0802 2.817-4.1123 4.371-1.6035 3.1911-3.2069 6.3822-4.8439 9.6401 8.4964 14.058 19.219 27.076 26.717 42.036-0.55637 0.37878-1.1127 0.75757-1.6691 1.1363-2.0268-2.752-4.2242-5.396-6.0488-8.2762-5.633-8.8923-11.274-17.786-16.615-26.854-3.3685-5.7187-6.7516-7.4391-11.932-4.8821z"/>
</g><g><path d="m162.43 279.84c1.8767 4.0391 5.1842 4.8815 8.7963 5.1782 7.5383 0.61932 14.781-0.1131 20.639-4.8503 3.0275 2.7379 5.6772 5.1342 8.6035 7.7805-5.2223 6.433-12.289 8.8074-19.356 9.8669-12.89 1.9325-24.159-2.3704-33.263-11.737-1.9084-1.9634-3.6172-4.4875-4.4561-7.0662-7.0737-21.744 0.285-42.343 26.386-47.424 16.927-3.295 36.068 11.372 37.503 29.846 0.39383 5.0708-1.7659 7.272-6.1792 7.353-9.2152 0.16913-18.438-0.12121-27.658-0.15875-3.376-0.0137-6.8457-0.31134-10.109 0.34088-5.8082 1.161-6.6175 4.0886-2.8672 8.781 0.51734 0.64722 1.1464 1.2051 1.9613 2.0895m-4.2217-23.347c1.4694 1.7187 2.8806 4.8536 4.4179 4.9166 7.5902 0.3111 15.213-0.20788 22.826-0.39862 3.515-0.0881 5.3307-2.7503 4.2579-5.1921-1.7111-3.8944-4.0792-8.3518-7.4785-10.491-9.7949-6.1646-19.602-1.5565-24.023 11.165z" fill="#6801ea"/>
<path d="m442.31 386.47c-6.7039 2.15-12.693 3.6348-19.589 0.6424-8.4686-3.6746-13.154-9.239-13.422-18.303-0.0995-3.3658-1.5636-5.141-4.3798-6.496-11.316-5.4447-22.612-10.933-33.863-16.51-9.9136-4.9129-19.759-9.9638-29.634-14.954 0.11621-0.58484 0.23242-1.1697 0.34863-1.7546 2.2123 0.18866 4.6988-0.21356 6.5908 0.66492 9.8936 4.594 19.609 9.5703 29.439 14.303 9.5364 4.5906 19.087 9.163 28.779 13.405 1.132 0.49542 3.89-0.68499 4.7363-1.8971 7.1328-10.216 16.465-13.552 28.589-10.654 9.612 2.2979 17.891 17.775 14.281 26.386-2.697 6.4326-5.6743 11.516-11.875 15.167z" fill="#67a9cf"/>
<path d="m239.59 270.09c-1.433-5.8101-0.95352-10.924 2.1078-15.743 3.2122-5.0561 7.916-6.9749 13.618-6.5535 5.3537 0.39563 9.3199 3.0431 11.769 7.9805 5.8484 11.79-0.76929 25.235-12.857 25.966-6.8302 0.41346-11.644-3.3223-14.638-11.65z" fill="#f5eff7"/>
<path d="m158.23 256.11c4.4055-12.334 14.212-16.942 24.007-10.777 3.3993 2.1394 5.7674 6.5969 7.4785 10.491 1.0728 2.4418-0.74289 5.104-4.2579 5.1921-7.6124 0.19074-15.235 0.70972-22.826 0.39862-1.5372-0.0629-2.9485-3.1979-4.4022-5.3047m12.688-10.034c-6.8934 2.4991-9.5848 5.872-9.5604 12.404h25.509c0.0254-8.8456-6.5111-14.083-15.948-12.404z" fill="#6b19d8"/>
<path d="m171.29 246c9.0597-1.6058 15.596 3.6317 15.571 12.477h-25.509c-0.0244-6.532 2.667-9.9049 9.9377-12.477z" fill="#f5eff7"/>
</g></svg>
